<?xml version="1.0" encoding="UTF-8" standalone="no" ?>
<!DOCTYPE svg PUBLIC "-//W3C//DTD SVG 1.1//EN" "http://www.w3.org/Graphics/SVG/1.1/DTD/svg11.dtd">
<svg xmlns="http://www.w3.org/2000/svg" xmlns:xlink="http://www.w3.org/1999/xlink" version="1.1" width="1920" height="1080" viewBox="0 0 1920 1080" xml:space="preserve">
<desc>Created with Fabric.js 5.2.4</desc>
<defs>
</defs>
<g transform="matrix(1 0 0 1 960 540)" id="0dafe6fd-b56f-46b8-8f29-a3f138cb4bc7"  >
<rect style="stroke: none; stroke-width: 1; stroke-dasharray: none; stroke-linecap: butt; stroke-dashoffset: 0; stroke-linejoin: miter; stroke-miterlimit: 4; fill: rgb(255,255,255); fill-rule: nonzero; opacity: 1; visibility: hidden;" vector-effect="non-scaling-stroke"  x="-960" y="-540" rx="0" ry="0" width="1920" height="1080" />
</g>
<g transform="matrix(Infinity NaN NaN Infinity 0 0)" id="89b9c298-3274-4a4f-9e95-eee4839e6268"  >
</g>
<g transform="matrix(1 0 0 1 436.62 540)"  >
<g style="" vector-effect="non-scaling-stroke"   >
		<g transform="matrix(2.69 0 0 2.69 0 0)"  >
<path style="stroke: none; stroke-width: 1; stroke-dasharray: none; stroke-linecap: butt; stroke-dashoffset: 0; stroke-linejoin: miter; stroke-miterlimit: 4; fill: rgb(0,0,0); fill-rule: nonzero; opacity: 1;" vector-effect="non-scaling-stroke"  transform=" translate(-148.5, -148.5)" d="M 290.517 63.342 C 290.517 38.241 270.096 17.82 244.995 17.82 C 240.657 17.82 235.174 18.18 229.82500000000002 19.524 C 221.023 7.711 206.381 0 191.537 0 C 181.859 0 172.51600000000002 3.091 164.80700000000002 8.685 C 157.099 3.091 147.756 0 138.079 0 C 122.548 0 108.33900000000001 7.92 100.05000000000001 20.503 C 95.13900000000001 18.734 89.933 17.819 84.62100000000001 17.819 C 59.52000000000001 17.819 39.09900000000001 38.241 39.09900000000001 63.340999999999994 C 39.09900000000001 83.95899999999999 52.88200000000001 101.40899999999999 71.715 106.989 L 71.715 114.15400000000001 L 48.982 114.15400000000001 C 25.548 114.15400000000001 6.482999999999997 134.55 6.482999999999997 159.61900000000003 L 6.482999999999997 202.61200000000002 C 6.482999999999997 227.681 25.548 248.07600000000002 48.982 248.07600000000002 L 71.714 248.07600000000002 L 71.714 251.53600000000003 C 71.714 276.60400000000004 92.109 297 117.178 297 L 209.095 297 C 234.163 297 254.559 276.604 254.559 251.536 L 254.559 107.845 C 275.082 103.438 290.517 85.16 290.517 63.342 z M 48.982 228.31 C 36.447 228.31 26.25 216.78300000000002 26.25 202.613 L 26.25 159.62 C 26.25 145.45000000000002 36.447 133.923 48.982 133.923 L 71.714 133.923 L 71.714 228.311 L 48.982 228.311 z M 209.096 277.233 L 117.179 277.233 C 103.009 277.233 91.482 265.706 91.482 251.536 L 91.482 108.339 C 94.409 107.895 97.277 107.179 100.05 106.17999999999999 C 108.339 118.762 122.548 126.684 138.079 126.684 C 156.059 126.684 171.639 116.205 179.03 101.035 C 188.18 106.618 199.48 108.86399999999999 209.356 108.86399999999999 C 215.494 108.86399999999999 221.561 107.618 227.17499999999998 105.22899999999998 C 229.636 106.27699999999999 232.188 107.08999999999999 234.79199999999997 107.68999999999998 L 234.79199999999997 251.53699999999998 C 234.793 265.706 223.266 277.233 209.096 277.233 z M 244.994 89.097 C 240.474 89.097 236.025 87.904 232.127 85.64699999999999 C 229.06300000000002 83.874 225.287 83.874 222.22400000000002 85.64699999999999 C 218.32500000000002 87.904 213.87500000000003 89.097 209.35700000000003 89.097 C 198.80200000000002 89.097 186.47500000000002 85.384 182.723 77.089 C 180.805 72.847 176.18800000000002 70.515 171.63500000000002 71.5 C 167.08400000000003 72.48 163.83400000000003 76.505 163.83400000000003 81.161 C 163.83400000000003 95.362 152.28000000000003 106.916 138.07900000000004 106.916 C 127.15600000000003 106.916 117.38900000000004 99.99199999999999 113.77400000000003 89.687 C 112.76100000000002 86.801 110.47100000000003 84.54599999999999 107.56900000000003 83.581 C 106.55000000000003 83.241 105.49700000000003 83.075 104.44900000000003 83.075 C 102.51100000000002 83.075 100.59100000000002 83.644 98.94200000000002 84.751 C 94.70200000000003 87.59400000000001 89.75000000000003 89.098 84.62100000000002 89.098 C 70.41900000000003 89.098 58.86600000000003 77.544 58.86600000000003 63.343 C 58.86600000000003 49.141000000000005 70.41900000000003 37.587 84.62100000000002 37.587 C 89.75100000000002 37.587 94.70200000000003 39.09 98.94100000000003 41.935 C 101.48100000000004 43.638000000000005 104.66500000000003 44.071000000000005 107.56900000000003 43.105000000000004 C 110.47000000000003 42.139 112.76100000000002 39.884 113.77400000000003 36.999 C 117.38800000000003 26.693000000000005 127.15600000000003 19.769000000000002 138.07900000000004 19.769000000000002 C 145.46000000000004 19.769000000000002 152.50000000000003 22.952 157.39600000000004 28.501 C 159.27200000000005 30.628 161.97100000000003 31.847 164.80700000000004 31.847 C 167.64300000000006 31.847 170.34200000000004 30.628 172.21900000000005 28.501 C 177.11500000000004 22.951 184.15600000000006 19.769000000000002 191.53600000000006 19.769000000000002 C 201.70100000000005 19.769000000000002 212.47200000000007 26.637 216.58900000000006 35.745000000000005 C 217.74100000000004 38.290000000000006 219.91400000000004 40.229000000000006 222.57300000000006 41.083000000000006 C 225.23300000000006 41.935 228.13000000000005 41.626000000000005 230.54700000000005 40.227000000000004 C 233.40100000000007 38.575 238.80200000000005 37.587 244.99300000000005 37.587 C 259.19500000000005 37.587 270.749 49.141000000000005 270.749 63.343 C 270.75 77.543 259.196 89.097 244.994 89.097 z" stroke-linecap="round" />
</g>
		<g transform="matrix(2.69 0 0 2.69 149.24 109.82)"  >
<path style="stroke: none; stroke-width: 1; stroke-dasharray: none; stroke-linecap: butt; stroke-dashoffset: 0; stroke-linejoin: miter; stroke-miterlimit: 4; fill: rgb(0,0,0); fill-rule: nonzero; opacity: 1;" vector-effect="non-scaling-stroke"  transform=" translate(-203.91, -189.27)" d="M 203.906 130.463 C 198.448 130.463 194.023 134.88899999999998 194.023 140.346 L 194.023 238.19400000000002 C 194.023 243.65200000000002 198.448 248.07700000000003 203.906 248.07700000000003 C 209.365 248.07700000000003 213.79000000000002 243.65200000000002 213.79000000000002 238.19400000000002 L 213.79000000000002 140.346 C 213.79 134.889 209.365 130.463 203.906 130.463 z" stroke-linecap="round" />
</g>
		<g transform="matrix(2.69 0 0 2.69 39.43 109.82)"  >
<path style="stroke: none; stroke-width: 1; stroke-dasharray: none; stroke-linecap: butt; stroke-dashoffset: 0; stroke-linejoin: miter; stroke-miterlimit: 4; fill: rgb(0,0,0); fill-rule: nonzero; opacity: 1;" vector-effect="non-scaling-stroke"  transform=" translate(-163.14, -189.27)" d="M 163.137 130.463 C 157.679 130.463 153.254 134.88899999999998 153.254 140.346 L 153.254 238.19400000000002 C 153.254 243.65200000000002 157.679 248.07700000000003 163.137 248.07700000000003 C 168.596 248.07700000000003 173.02100000000002 243.65200000000002 173.02100000000002 238.19400000000002 L 173.02100000000002 140.346 C 173.02 134.889 168.596 130.463 163.137 130.463 z" stroke-linecap="round" />
</g>
		<g transform="matrix(2.69 0 0 2.69 -70.39 109.82)"  >
<path style="stroke: none; stroke-width: 1; stroke-dasharray: none; stroke-linecap: butt; stroke-dashoffset: 0; stroke-linejoin: miter; stroke-miterlimit: 4; fill: rgb(0,0,0); fill-rule: nonzero; opacity: 1;" vector-effect="non-scaling-stroke"  transform=" translate(-122.37, -189.27)" d="M 122.367 130.463 C 116.909 130.463 112.48400000000001 134.88899999999998 112.48400000000001 140.346 L 112.48400000000001 238.19400000000002 C 112.48400000000001 243.65200000000002 116.909 248.07700000000003 122.367 248.07700000000003 C 127.82600000000001 248.07700000000003 132.251 243.65200000000002 132.251 238.19400000000002 L 132.251 140.346 C 132.251 134.889 127.826 130.463 122.367 130.463 z" stroke-linecap="round" />
</g>
</g>
</g>
<g transform="matrix(1 0 0 1 2214.39 1220.39)" style="" id="b497cc80-e5a4-45a6-9642-d122143bfec2"  >
		<text xml:space="preserve" font-family="Raleway" font-size="105" font-style="normal" font-weight="900" style="stroke: none; stroke-width: 1; stroke-dasharray: none; stroke-linecap: butt; stroke-dashoffset: 0; stroke-linejoin: miter; stroke-miterlimit: 4; fill: rgb(0,0,0); fill-rule: nonzero; opacity: 1; white-space: pre;" ><tspan x="-218.82" y="32.98" >Heading</tspan></text>
</g>
<g transform="matrix(1 0 0 1 1338.65 629.6)" style="" id="90e185b0-a23a-437b-9f30-eebf65d5ac02"  >
		<text xml:space="preserve" font-family="Raleway" font-size="200" font-style="normal" font-weight="900" style="stroke: none; stroke-width: 1; stroke-dasharray: none; stroke-linecap: butt; stroke-dashoffset: 0; stroke-linejoin: miter; stroke-miterlimit: 4; fill: rgb(0,0,0); fill-rule: nonzero; opacity: 1; white-space: pre;" ><tspan x="-486.8" y="62.83" >IT102 bier</tspan></text>
</g>
</svg>